<svg width="24" height="20" viewBox="0 0 24 20" fill="none" xmlns="http://www.w3.org/2000/svg">
<path fill-rule="evenodd" clip-rule="evenodd" d="M16.3276 19.5508V10.6849L24 6.25525V14.7817C24 14.9971 23.8925 15.1832 23.706 15.2909L16.3276 19.5508ZM7.09838 15.1443H0.907969C0.406547 15.1443 0 14.7378 0 14.2364C0 13.735 0.406547 13.3284 0.907969 13.3284H7.06608C8.13089 13.3284 8.13089 11.6279 7.06608 11.6279H3.36548C2.86406 11.6279 2.45747 11.2213 2.45747 10.7199C2.45747 10.2185 2.86406 9.81194 3.36548 9.81194H6.25983C7.32464 9.81194 7.32464 8.11141 6.25983 8.11141H0.908016C0.406594 8.11141 4.6875e-05 7.70486 4.6875e-05 7.20344C4.6875e-05 6.70202 0.406594 6.29547 0.908016 6.29547H7.12777L14.7307 10.685V19.5508L7.09838 15.1443ZM7.85105 4.87366L15.5291 9.30658L23.2072 4.87361L15.5438 0.449219H10.5158C10.0144 0.449219 9.60787 0.855766 9.60787 1.35719C9.60787 1.85861 10.0144 2.26516 10.5158 2.26516H11.5784C11.676 2.26516 11.7578 2.32792 11.7831 2.42219C11.8083 2.51645 11.7689 2.6117 11.6843 2.66055L7.85105 4.87366ZM7.41398 0.449219C7.91541 0.449219 8.32195 0.855766 8.32195 1.35719C8.32195 1.85861 7.91541 2.26516 7.41398 2.26516H1.89506C1.39364 2.26516 0.987047 1.85861 0.987047 1.35719C0.987047 0.855766 1.39359 0.449219 1.89506 0.449219H7.41398Z" fill="#822D11"/>
</svg>
