<svg width="22" height="24" viewBox="0 0 22 24" fill="none" xmlns="http://www.w3.org/2000/svg">
<path d="M21.9093 13.6178C21.7999 13.2636 21.5864 12.9504 21.2967 12.719C21.0071 12.4877 20.6545 12.3487 20.2848 12.3203L19.6016 12.261C19.4361 12.2474 19.2819 12.1719 19.1697 12.0496C19.0575 11.9272 18.9956 11.767 18.9963 11.601V2.43079C18.9963 2.03296 18.8383 1.65143 18.557 1.37013C18.2757 1.08882 17.8941 0.930786 17.4963 0.930786H4.50407C4.10625 0.930786 3.72472 1.08882 3.44341 1.37013C3.16211 1.65143 3.00407 2.03296 3.00407 2.43079V11.6003C3.005 11.7661 2.94322 11.9262 2.83113 12.0485C2.71903 12.1707 2.56489 12.2461 2.39957 12.2595L1.71407 12.3195C1.34596 12.3521 0.995686 12.4928 0.707247 12.7238C0.418809 12.9548 0.205071 13.2659 0.0928831 13.618C-0.0193052 13.9701 -0.024941 14.3475 0.0766839 14.7029C0.178309 15.0582 0.382662 15.3755 0.664074 15.615L9.05732 22.7513C9.59844 23.215 10.2876 23.4699 11.0002 23.4699C11.7128 23.4699 12.402 23.215 12.9431 22.7513L21.3371 15.6158C21.6196 15.3769 21.8248 15.0594 21.9267 14.7037C22.0285 14.348 22.0225 13.9701 21.9093 13.6178ZM10.9998 10.35C11.7583 10.3475 12.4922 10.6188 13.0667 11.1139C13.6412 11.6091 14.0178 12.295 14.1272 13.0455C14.2367 13.796 14.0717 14.5608 13.6625 15.1994C13.2533 15.838 12.6274 16.3076 11.8998 16.5218V17.1C11.8998 17.3387 11.805 17.5677 11.6362 17.7364C11.4674 17.9052 11.2385 18 10.9998 18C10.7611 18 10.5322 17.9052 10.3634 17.7364C10.1946 17.5677 10.0998 17.3387 10.0998 17.1V16.5218C9.44916 16.3299 8.87783 15.9331 8.47081 15.3904C8.06379 14.8477 7.84284 14.1881 7.84082 13.5098C7.84082 13.2711 7.93564 13.0422 8.10443 12.8734C8.27321 12.7046 8.50213 12.6098 8.74082 12.6098C8.97952 12.6098 9.20844 12.7046 9.37722 12.8734C9.546 13.0422 9.64082 13.2711 9.64082 13.5098C9.64082 13.7788 9.72059 14.0417 9.87004 14.2653C10.0195 14.4889 10.2319 14.6632 10.4804 14.7661C10.7289 14.869 11.0023 14.8959 11.2661 14.8434C11.5299 14.7908 11.7722 14.6613 11.9623 14.471C12.1525 14.2808 12.2819 14.0384 12.3343 13.7746C12.3867 13.5108 12.3596 13.2374 12.2566 12.9889C12.1536 12.7405 11.9792 12.5282 11.7555 12.3788C11.5318 12.2295 11.2688 12.1499 10.9998 12.15C10.2414 12.1525 9.50747 11.8813 8.93295 11.3861C8.35843 10.891 7.98186 10.2051 7.87241 9.4546C7.76297 8.70407 7.92799 7.93926 8.33718 7.30064C8.74637 6.66202 9.37224 6.19249 10.0998 5.97829V5.40004C10.0998 5.16134 10.1946 4.93242 10.3634 4.76364C10.5322 4.59486 10.7611 4.50004 10.9998 4.50004C11.2385 4.50004 11.4674 4.59486 11.6362 4.76364C11.805 4.93242 11.8998 5.16134 11.8998 5.40004V5.97829C12.5506 6.17003 13.1221 6.56677 13.5293 7.10947C13.9364 7.65217 14.1575 8.31183 14.1596 8.99029C14.1596 9.22898 14.0648 9.4579 13.896 9.62668C13.7272 9.79547 13.4983 9.89029 13.2596 9.89029C13.0209 9.89029 12.792 9.79547 12.6232 9.62668C12.4544 9.4579 12.3596 9.22898 12.3596 8.99029C12.3596 8.72135 12.2798 8.45846 12.1304 8.23485C11.981 8.01124 11.7686 7.83696 11.5202 7.73404C11.2717 7.63112 10.9983 7.6042 10.7345 7.65666C10.4708 7.70913 10.2285 7.83863 10.0383 8.0288C9.84817 8.21896 9.71867 8.46125 9.6662 8.72501C9.61373 8.98878 9.64066 9.26218 9.74358 9.51064C9.84649 9.7591 10.0208 9.97147 10.2444 10.1209C10.468 10.2703 10.7309 10.35 10.9998 10.35Z" fill="#822D11"/>
</svg>
